<svg width="110" height="24" xmlns="http://www.w3.org/2000/svg"><path d="M107.234 11.1c-.172-1.47-2.062-2.696-3.203-2.918-1.045-.204-2.107-.27-3.167-.283-.836-.01-1.674.034-2.506.125-1.2.132-1.773.574-2.191 1.756-.167.47-.294 1.186.022 1.614.454.613 1.368.278 1.94.1.623-.195 1.344-.207 1.987-.265.658-.059 1.581-.251 2.211.035-.27.544-1.04.824-1.517 1.096-.695.396-1.373.825-2.076 1.206-1.906 1.034-3.891 2.28-5.92 3.004-1.158.412-2.388.487-3.598.522-.922.027-1.845.047-2.764-.045-.613-.061-1.703-.095-2.028-.784-.23-.488.004-1.08.247-1.503 1.355-2.355 3.455-3.895 6.048-3.986.647-.023 1.35-.091 1.71-.777.46-.875-.215-1.75-.95-2.092-1.313-.608-2.894-.064-4.157.453-1.246.51-2.454 1.23-3.316 2.35-1.12 1.453-1.874 3.496-1.631 5.4.346 2.72 2.168 5.308 4.937 5.093.883-.069 1.78-.212 2.623-.513.856-.307 1.689-.978 2.617-.978.031 0 .047.009.063.025.574.618 1.087 1.203 1.893 1.445.79.236 1.632.175 2.442.227 3.635.23 7.256-.388 10.758-1.403.674-.196 1.46-.644 1.96-1.162 1.033-1.066-.605-1.42-1.416-1.43-.953-.01-1.906-.041-2.859-.053a80.747 80.747 0 00-6.442.173c-.622.042-1.253.106-1.874.135-.407.018-.986-.147-.732-.649.164-.324.677-.576.98-.717 2.342-1.082 4.677-1.839 7.128-2.579.831-.251 2.086-.626 2.553-1.492.207-.384.27-.764.228-1.13M77.874 11.254c.054-.59-.037-1.2-.37-1.57-.278-.31-.681-.627-1.05-.769-.563-.216-1.058.345-1.476.637-.521.365-1.13.613-1.702.872-1.192.54-2.237.827-3.613 1.02-.791.112-1.578.147-2.051-.043-.473-.19-.73-1.714-.787-1.867-.238-.644-.408-1.076-1.112-1.17-.616.094-.838.721-.968 1.351a7.559 7.559 0 00-.133 2.458c.113.995.503 1.987 1.21 2.663.238.228.424.239.725.341.293.1.574.16.634.519.04.243.004.591.009.847.013.729.058 1.46.097 2.19.01.212.023.427.04.64.072.884-.02 2.598 1.135 2.785 1.527.247 1.241-1.466 1.282-2.513.026-.67.049-1.34.082-2.007.007-.143.065-2.005.167-2.005.032 0 .054-.005.079-.01a22.102 22.102 0 001.632-.278c.581-.117 1.16-.262 1.726-.444 1.092-.35 2.203-.836 3.12-1.576.49-.396 1.1-1.058 1.264-1.707.027-.106.047-.23.06-.364M78.967 20.126c.304-.55.403-1.382.12-1.968-.302-.628-1.438-.211-1.933-.116-.514.1-1.094.302-1.267.883-.192.645.215 1.665.664 2.116.971.973 1.886.049 2.416-.915M36.03 12.167a.583.583 0 01-.212-.334c-.207-.786-.184-1.415.664-1.555.945-.157 1.655.18 2.564.309.325.046.705.346.639.73-.062.36-.428.44-.705.535-.658.224-2.323.78-2.95.315zm25.903 7.564c.01-.223.012-.448.026-.66.108-1.625.258-3.248.434-4.867.153-1.415.353-2.815-.72-3.895-1.057-1.062-2.104-1.519-3.49-.86-1.468.7-2.781 1.757-4.321 2.301.178-.063-1.115-2.286-1.265-2.458-.438-.504-1.674-1.535-2.257-.723-.38.529-.387 1.276-.53 1.9-.17.745-.363 1.483-.518 2.234-.324 1.57-.873 3.353-1.302 4.896-.027 0-.055 0-.092-.01-1.686-.45-3.418-.688-5.103-1.172a56.546 56.546 0 01-5.003-1.718c.672-.123 1.4-.316 2.057-.468.721-.165 1.43-.382 2.092-.737.554-.296 1.184-.594 1.517-1.18 1.809-3.186-4.507-4.187-6.128-4.25-1.122-.045-4.524-.416-4.81 1.312-.064.381.01.844.107 1.213.119.457.427.488.621.888.24.495-.285 1.34-.43 1.83-.224.747-.394 1.51-.59 2.265-.319 1.223-.55 2.41-.422 3.686.027.275.115.888.247 1.106.305.503.829.677 1.336.478.67-.26.737-1.027.988-1.667.055-.138.728-1.72.628-1.77 2.322 1.173 4.91 2.123 7.79 2.88.9.235 1.872.085 2.76-.139.556-.14 1.054-.467 1.624-.57.793-.143.748.364 1.055.967.15.294.333.576.554.813 1.873 2.01 2.232-3.136 2.484-4.093.161-.614.187-1.355.485-1.919.316-.598.782.015 1.073.303.397.392.808.68 1.364.72.794.057 1.37-.242 1.963-.772.56-.5 1.168-.943 1.698-1.483.285-.29.616-.875 1.033-.959.611-.123.394.798.348 1.205-.086.74-.111 1.488-.152 2.232-.05.918-.204 2.018-.033 2.928.142.754 1.127 1.99 1.94 1.803.803-.184.91-.879.942-1.59zM30.547 12.496c.085-.613.339-1.348.096-1.934-.297-.714-.55-1.002-.805-1.32-.243-.305-1.036-1.078-1.526-.83-.395.2-.586 1.482-.727 1.86-.322.859-.555 1.758-.773 2.641-.455 1.855-.545 3.67-.75 5.552-.084.767-.144 1.542-.056 2.311.134 1.164 1.094 1.302 2.02.668 1.171-.803 1.29-2.312 1.564-3.489.248-1.066.416-2.14.659-3.179.168-.719.207-1.454.286-2.185l.012-.095"/><g fill="#de0000"><path d="M23.616 2.719c-.346-.612-.895-1.12-1.47-1.453C20.003.02 17.586.008 15.219 0a34.91 34.91 0 00-5.132.372c-.939.136-1.874.31-2.801.515a34.27 34.27 0 00-3.283.873c-.98.321-1.925.89-2.827 1.406-.42.24-.869.557-1.07 1.042-.24.582-.003 1.137.044 1.728.066.821.396 1.075.798 1.692.795 1.22 2.067 1.551 3.372 1.028.342-.137 1.185-.785 1.506-.689.521.157.075 1.83-.035 2.234-.15.552-.43.963-.942 1.164-.43.168-1.319.071-1.46.67-.396 1.673 1.296 2.907 1.53 4.394.117.743-.181 1.487-.258 2.221-.101.964-.155 1.938-.232 2.905-.036.453-.161 1.076-.117 1.52.068.677.801 1.086 1.354.865.875-.35 1.337-1.5 1.692-2.345.486-1.159.742-2.337.97-3.575.152-.83.425-1.714 1.334-1.819 1.201-.137 2.371-.481 3.575-.617 1.293-.147 2.597-.207 3.877-.473.853-.177 1.724-.15 2.583-.277 1.446-.214 3.154-.787 4.41-1.603.613-.398.853-1.292 1.106-1.963.663-1.757-3.846-1.515-4.529-1.522-1.943-.018-3.744.036-5.404.179-1.215.105-2.412.197-3.632.173-.532-.01-1.307-.005-1.654-.519-.407-.603-.118-1.92.135-2.54.319-.785 1.532-.567 2.161-.616 1.07-.084 2.134-.248 3.206-.296 2.282-.102 4.469-.204 6.73-.587.568-.096 1.58-.296 1.72-1.029.121-.645-.027-1.258-.33-1.792"/></g></svg>